<svg id="bfea2134-9924-4ddb-abfc-914d3548447a" data-name="Layer 1" xmlns="http://www.w3.org/2000/svg" width="904.85779" height="710" viewBox="0 0 904.85779 710"><title>hot_beverage</title><path d="M1005.97613,762.1682l39.15435-55.07265-39.23437,61.10506-.08567,6.30961q-4.12852-.07606-8.17165-.35046c.00206-1.43282,4.07213-80.23012,3.947-81.65765.19094-.05213.37189-7.45255.45067-7.77592L962.31854,623.718l39.81859,55.27274.10412,1.62322,3.00808-61.222L971.214,556.3265l34.41728,52.30671c.02132-.83324,2.92112-126.5687,2.945-127.34446.00577.41226-.23914,100.08137-.23781,100.50141l33.55309-39.78323-33.6712,48.40285-.71835,54.813,31.29492-52.69835c-39.16734,76.91716-30.39984,49.95149-31.7939,91.23575l45.42587-73.36044-45.5706,83.99306Z" transform="translate(-147.57111 -95)" fill="#d0cde1"/><ellipse cx="449.5" cy="689" rx="449.5" ry="21" fill="#d0cde1"/><path d="M659.79,102.62192V421.65386a17.42154,17.42154,0,0,1-34.84308,0V102.62192c0-9.62543,7.79611-2.17769,17.42154-2.17769,4.81268,0,4.46424-5.32447,7.62192-2.17769C653.13714,101.42415,659.79,97.80918,659.79,102.62192Z" transform="translate(-147.57111 -95)" fill="#a0616a"/><rect x="477.3758" y="15.78827" width="34.84308" height="13.06615" opacity="0.1"/><rect x="477.3758" y="57.16443" width="34.84308" height="13.06615" opacity="0.1"/><rect x="477.3758" y="98.54058" width="34.84308" height="13.06615" opacity="0.1"/><rect x="477.3758" y="139.91674" width="34.84308" height="13.06615" opacity="0.1"/><rect x="477.3758" y="181.29289" width="34.84308" height="13.06615" opacity="0.1"/><rect x="477.3758" y="222.66905" width="34.84308" height="13.06615" opacity="0.1"/><rect x="477.3758" y="264.0452" width="34.84308" height="13.06615" opacity="0.1"/><rect x="477.3758" y="305.42136" width="34.84308" height="13.06615" opacity="0.1"/><ellipse cx="494.79733" cy="5.44423" rx="17.42154" ry="5.44423" fill="#a0616a"/><ellipse cx="494.79733" cy="5.44423" rx="17.42154" ry="5.44423" opacity="0.1"/><path d="M823.04933,170.34733,621.175,417.386a17.42154,17.42154,0,1,1-26.98033-22.04772L796.069,148.29962c6.0907-7.45334,7.41481,3.24688,14.86815,9.33758,3.72665,3.04533,6.826-1.2981,7.27993,3.13667C818.6557,165.21012,826.0947,166.62063,823.04933,170.34733Z" transform="translate(-147.57111 -95)" fill="#a0616a"/><rect x="793.7247" y="153.28426" width="13.06615" height="34.84308" transform="translate(14.12218 587.35839) rotate(-50.74509)" opacity="0.1"/><rect x="767.54305" y="185.32341" width="13.06615" height="34.84308" transform="translate(-20.30162 578.8506) rotate(-50.74509)" opacity="0.1"/><rect x="741.36139" y="217.36256" width="13.06615" height="34.84308" transform="translate(-54.72541 570.34282) rotate(-50.74509)" opacity="0.1"/><rect x="715.17973" y="249.40171" width="13.06615" height="34.84308" transform="translate(-89.1492 561.83504) rotate(-50.74509)" opacity="0.1"/><rect x="688.99807" y="281.44086" width="13.06615" height="34.84308" transform="translate(-123.57299 553.32726) rotate(-50.74509)" opacity="0.1"/><rect x="662.81641" y="313.48" width="13.06615" height="34.84308" transform="translate(-157.99678 544.81948) rotate(-50.74509)" opacity="0.1"/><rect x="636.63476" y="345.51915" width="13.06615" height="34.84308" transform="matrix(0.63277, -0.77434, 0.77434, 0.63277, -192.42058, 536.3117)" opacity="0.1"/><rect x="610.4531" y="377.5583" width="13.06615" height="34.84308" transform="translate(-226.84437 527.80392) rotate(-50.74509)" opacity="0.1"/><ellipse cx="810.93714" cy="157.6372" rx="5.44423" ry="17.42154" transform="translate(28.16346 590.82866) rotate(-50.74509)" fill="#a0616a"/><ellipse cx="810.93714" cy="157.6372" rx="5.44423" ry="17.42154" transform="translate(28.16346 590.82866) rotate(-50.74509)" opacity="0.1"/><path d="M821.39326,466.29655h-46.625l.34139-8.72167,2.00351-51.52421,1.00172-25.59878H453.45362l.51173,13.09885,1.32843,34.1571,2.52613,64.819,1.6877,43.151,2.17769,55.81427,1.85105,47.66972.53352,13.70853.0109.16336.26132,6.827.67508,17.10579.06532,1.90549.4573,11.60713.07623,2.09057.66424,16.86622.588,15.20031.20688,5.24818.098,2.38458.08713,2.30841a59.9583,59.9583,0,0,0,4.486,22.844,57.51884,57.51884,0,0,0,2.64589,5.61841,60.39716,60.39716,0,0,0,33.50381,28.56048,56.93185,56.93185,0,0,0,5.78177,1.6877,59.893,59.893,0,0,0,13.92632,1.62237H703.95358a60.18806,60.18806,0,0,0,25.66411-5.70554,60.85408,60.85408,0,0,0,22.648-18.47775,59.61622,59.61622,0,0,0,6.446-10.76864c.14155-.30491.28311-.60975.40287-.91466a59.52151,59.52151,0,0,0,5.09586-21.30873c.05442-1.04532.08706-2.10147.08706-3.15762l.56622-14.53613.69687-17.84621.06533-1.77482.72233-18.53212h55.04509a73.67053,73.67053,0,0,0,73.5875-73.5875V539.88405A73.67053,73.67053,0,0,0,821.39326,466.29655ZM851.42691,608.3006a30.06814,30.06814,0,0,1-30.03365,30.03365H768.05694l.00791-.196.50089-12.87017.38107-9.82142,2.15589-55.248,1.962-50.34824h48.32859a30.06814,30.06814,0,0,1,30.03365,30.03365Z" transform="translate(-147.57111 -95)" fill="#3f3d56"/><circle cx="383.98855" cy="50.54565" r="35.23168" fill="#d0cde1"/><circle cx="406.11223" cy="120.90082" r="48.38484" fill="#d0cde1"/><path d="M567.92608,161.68627,512.3201,179.172a1.6238,1.6238,0,0,0-1.06191,2.03611l.99861,3.17566a1.62379,1.62379,0,0,0,2.03611,1.06194l9.4508-2.97187,1.27125.62608,4.93515,45.59276,7.82056,5.50774-5.32732-47.442L568.291,204.41325l7.64345-3.88084-42.59617-21.0757L569.89889,167.96a1.62379,1.62379,0,0,0,1.0619-2.03613l-.99861-3.17566A1.62379,1.62379,0,0,0,567.92608,161.68627Z" transform="translate(-147.57111 -95)" fill="#9c5700"/><path d="M508.11668,134.69741s12.135-11.72732,11.32648-14.29856-8.89091-8.50617-19.17587-5.272c0,0-4.02662-3.81969-5.98015.7503s3.48325,5.68585,3.48325,5.68585-2.746,11.03527,7.2608,14.10465Z" transform="translate(-147.57111 -95)" fill="#9c5700"/><circle cx="369.32741" cy="47.76945" r="2.81853" fill="#3f3d56"/><circle cx="394.42225" cy="39.8782" r="2.81853" fill="#3f3d56"/><rect x="531.08973" y="144.28164" width="5.16731" height="15.9717" transform="translate(-168.67031 72.10121) rotate(-17.45612)" fill="#ff6584"/><circle cx="401.79461" cy="104.03847" r="2.81853" fill="#3f3d56"/><circle cx="404.89475" cy="113.89716" r="2.81853" fill="#3f3d56"/><circle cx="407.99488" cy="123.75585" r="2.81853" fill="#3f3d56"/><path d="M537.82928,165.48359a28.05661,28.05661,0,0,1-13.832.60149l.1758-.92281a25.917,25.917,0,0,0,24.67056-7.75784l.67274.656A28.05881,28.05881,0,0,1,537.82928,165.48359Z" transform="translate(-147.57111 -95)" fill="#3f3d56"/><circle cx="404.12867" cy="45.68975" r="2.34878" fill="#ff6584"/><circle cx="364.69393" cy="58.09029" r="2.34878" fill="#ff6584"/><circle cx="513.24574" cy="414.37355" r="5.53018" fill="#d0cde1"/><circle cx="530.66728" cy="505.83663" r="5.53018" fill="#d0cde1"/><circle cx="421.78266" cy="528.7024" r="5.53018" fill="#d0cde1"/><circle cx="477.31381" cy="633.23164" r="5.53018" fill="#d0cde1"/><circle cx="353.18535" cy="549.39048" r="5.53018" fill="#d0cde1"/><circle cx="348.82996" cy="442.68356" r="5.53018" fill="#d0cde1"/><circle cx="578.57651" cy="400.21855" r="5.53018" fill="#d0cde1"/><circle cx="405.44997" cy="627.78741" r="5.53018" fill="#d0cde1"/><circle cx="378.22881" cy="375.17509" r="7.49711" fill="#d0cde1"/><circle cx="452.27035" cy="453.57202" r="7.49711" fill="#d0cde1"/><circle cx="548.08882" cy="611.45472" r="7.49711" fill="#d0cde1"/><ellipse cx="468.20882" cy="285.45096" rx="162.69429" ry="19.73168" fill="#a0616a"/><path d="M619.81416,176.21907s5.0085,39.10521-43.3593,52.23185S515.631,269.94627,515.631,269.94627s-51.72892,14.19307-20.0771,46.32458c0,0-73.44758,50.67993-1.70794,71.572s265.54613,6.75376,257.42217-32.84276c0,0,10.08046-18.36625-13.28557-22.051,0,0,32.539-44.35936-49.6135-70.08646,0,0,13.36067-13.85779-22.38341-9.91573C665.98563,252.94686,688.26779,162.26874,619.81416,176.21907Z" transform="translate(-147.57111 -95)" fill="#d0cde1"/><path d="M514.79423,272.17761l-.12936-3.15089c57.47989-2.357,89.04348-20.28675,105.40086-34.91314,17.67178-15.80143,21.88067-31.25173,21.92071-31.4065l3.05233.79388c-.17094.66067-4.40447,16.3697-22.6838,32.79637C605.61567,251.3403,573.36677,269.77594,514.79423,272.17761Z" transform="translate(-147.57111 -95)" fill="#a0616a"/><path d="M495.00259,318.4646l-.70071-3.07543c.24872-.05621,25.66991-5.83053,95.78957-20.03033,47.998-9.71987,59.49733-19.70847,62.08072-24.79749a4.147,4.147,0,0,0,.57828-2.85135l2.86445-1.31981c.1078.23409,1.00486,2.377-.63064,5.59877-3.47045,6.83694-17.43694,16.97723-64.26679,26.46071C520.64709,312.64023,495.25131,318.40762,495.00259,318.4646Z" transform="translate(-147.57111 -95)" fill="#a0616a"/><path d="M526.77793,331.45241c-.298,0-.5159-.00077-.64989-.00154l.01694-3.154c1.09265.01387,115.40795.15709,150.589-37.66054,7.476-8.03662,10.8618-17.33991,10.06253-27.65192l3.14473-.24333c.87011,11.22756-2.79746,21.33628-10.89953,30.04513C643.93689,330.51915,537.1115,331.45241,526.77793,331.45241Z" transform="translate(-147.57111 -95)" fill="#a0616a"/><path d="M660.66926,370.20483c-.10164,0-.16093-.00077-.1771-.00077l.04543-3.154c.53516-.00539,55.09748.358,76.08956-34.90775l2.71044,1.61394C718.02134,369.56726,664.189,370.20483,660.66926,370.20483Z" transform="translate(-147.57111 -95)" fill="#a0616a"/><path d="M627.43609,174.04138s5.00849,39.10521-43.35931,52.23185-60.82387,41.49535-60.82387,41.49535-51.72893,14.19307-20.0771,46.32457c0,0-73.44759,50.67993-1.708,71.572S767.014,392.41891,758.89,352.82239c0,0,10.08046-18.36625-13.28556-22.051,0,0,32.539-44.35935-49.6135-70.08646,0,0,13.36067-13.85778-22.38342-9.91572C673.60755,250.76917,695.88971,160.09105,627.43609,174.04138Z" transform="translate(-147.57111 -95)" fill="#d0cde1"/><path d="M522.41615,269.99992l-.12936-3.15089c57.4799-2.357,89.04348-20.28676,105.40086-34.91314,17.67179-15.80143,21.88068-31.25173,21.92072-31.40651l3.05233.79389c-.171.66067-4.40447,16.36969-22.6838,32.79637C613.23759,249.16261,580.9887,267.59825,522.41615,269.99992Z" transform="translate(-147.57111 -95)" fill="#a0616a"/><path d="M502.62452,316.28691l-.70071-3.07543c.24871-.05621,25.66991-5.83053,95.78956-20.03034,47.998-9.71986,59.49733-19.70847,62.08072-24.79748a4.147,4.147,0,0,0,.57828-2.85136l2.86445-1.3198c.1078.23409,1.00487,2.377-.63064,5.59876-3.47045,6.837-17.43693,16.97724-64.26679,26.46072C528.269,310.46254,502.87323,316.22993,502.62452,316.28691Z" transform="translate(-147.57111 -95)" fill="#a0616a"/><path d="M534.39986,329.27471c-.298,0-.51591-.00077-.64989-.00154l.01694-3.154c1.09264.01386,115.40794.15709,150.589-37.66054,7.47606-8.03662,10.8618-17.33992,10.06253-27.65192l3.14473-.24333c.87011,11.22756-2.79746,21.33628-10.89953,30.04512C651.55881,328.34146,544.73343,329.27471,534.39986,329.27471Z" transform="translate(-147.57111 -95)" fill="#a0616a"/><path d="M668.29118,368.02714c-.10164,0-.16093-.00077-.1771-.00077l.04543-3.154c.53516-.00539,55.09748.358,76.08956-34.90775l2.71045,1.61394C725.64326,367.38957,671.81091,368.02714,668.29118,368.02714Z" transform="translate(-147.57111 -95)" fill="#a0616a"/><circle cx="119.05873" cy="286.15698" r="17.00174" fill="#2f2e41"/><path d="M283.60789,374.24419,272.96615,371.636a27.40508,27.40508,0,0,1-26.85541-32.86638v0A35.82062,35.82062,0,0,1,281.93137,302.949h.00007a35.82063,35.82063,0,0,1,35.82063,35.82063l0,0A28.46548,28.46548,0,0,1,283.60789,374.24419Z" transform="translate(-147.57111 -95)" fill="#2f2e41"/><polygon points="67.588 388.206 93.896 350.764 108.178 377.286 91.856 396.328 67.588 388.206" fill="#575a89"/><path d="M228.886,479.42706s-8.16084-3.40035-12.92133,2.72028-12.92132,19.042-10.201,21.08216,11.56118-6.12063,11.56118-6.12063Z" transform="translate(-147.57111 -95)" fill="#575a89"/><ellipse cx="213.5844" cy="503.56953" rx="11.56119" ry="6.12063" transform="matrix(0.62334, -0.78195, 0.78195, 0.62334, -460.8884, 261.68463)" fill="#ffb8b8"/><path d="M202.36325,573.95675s1.36014,43.52447,6.12063,68.68705-2.72028,115.61186-2.72028,115.61186l14.96153,6.80069,9.521-10.201s-3.40035-18.36189,1.36014-31.28321,6.80069-68.687,6.80069-68.687l8.16084-74.80767Z" transform="translate(-147.57111 -95)" fill="#ffb8b8"/><path d="M258.129,586.87808l42.84439,78.208,38.764,71.40732V751.455l19.722-6.12063-6.8007-15.6416s-3.40035-61.20628-27.88286-85.00872L303.69364,584.1578Z" transform="translate(-147.57111 -95)" fill="#ffb8b8"/><path d="M232.62635,481.8073h-7.48077s-40.80418,55.76572-38.764,89.76921l58.486,23.80244,2.04021-4.76049s48.285,8.84091,60.5262-1.36014l-17.00174-87.04893-1.36014-12.24125Z" transform="translate(-147.57111 -95)" fill="#2f2e41"/><path d="M213.92443,757.57559s9.521-12.24126-2.04021-12.92133S200.323,751.455,200.323,751.455l-25.84265,17.68181s-42.8444,15.64161-12.24126,20.40209c0,0,12.92133,2.72028,29.243-3.40034a96.84364,96.84364,0,0,1,30.60314-6.12063s14.96154-.68007,14.96154-8.16084-7.29876-20.40209-7.29876-20.40209S218.00485,759.6158,213.92443,757.57559Z" transform="translate(-147.57111 -95)" fill="#2f2e41"/><path d="M360.8195,740.57384s-23.12237-4.76049-23.80244,4.08042,0,23.80244,0,23.80244,5.44056,6.8007,4.08042,11.56119,3.40035,19.722,19.722,17.68181,10.88112-25.16258,10.88112-25.16258L360.8195,746.0144Z" transform="translate(-147.57111 -95)" fill="#2f2e41"/><circle cx="139.12079" cy="247.05297" r="22.78234" fill="#ffb8b8"/><path d="M271.39033,354.63426l-.34,39.104,27.88286-9.521s-3.40035-22.4423-2.72028-24.48251Z" transform="translate(-147.57111 -95)" fill="#ffb8b8"/><path d="M266.2898,382.17708s29.243-10.201,32.64335-8.8409,4.76049,8.8409,4.76049,8.8409,16.32167-3.40034,18.36188,7.48077-12.92132,58.486-12.92132,58.486l-14.96154,27.88286s7.48077,11.56119-5.44055,15.6416-59.84614-8.8409-59.84614-8.8409-8.16084-9.521,0-9.521c0,0,2.72028-8.84091,5.44056-10.88112s-2.04021-5.44055.68007-6.12062,2.72028-2.04021,2.72028-2.04021-13.6014-18.36189-1.36014-33.32342,13.94143-28.903,20.06205-30.94317S266.2898,382.17708,266.2898,382.17708Z" transform="translate(-147.57111 -95)" fill="#575a89"/><ellipse cx="280.9113" cy="538.25309" rx="11.56119" ry="6.12063" transform="translate(-329.38336 50.16982) rotate(-22.09232)" fill="#ffb8b8"/><path d="M311.85448,387.61764h9.58771s27.81612,67.32691,19.65529,88.40907-38.08391,57.80593-38.08391,57.80593-9.521,17.00174-16.32167,17.00174-14.28147-24.48251-14.28147-24.48251l21.76223-9.521L320.01531,469.226l-12.24125-36.72376Z" transform="translate(-147.57111 -95)" fill="#575a89"/><polygon points="89.816 358.924 74.854 385.447 77.574 386.807 89.816 358.924" opacity="0.2"/><rect x="217.09971" y="551.51429" width="79.33823" height="1.36047" transform="translate(-489.53573 568.40275) rotate(-75.58387)" opacity="0.2"/><path d="M314.23472,332.872l-4.08042-7.48077-6.12062,4.10387h0a6.64672,6.64672,0,0,1-5.51539,2.74393l-21.3701-.43135a7.04459,7.04459,0,0,1-5.07778-2.31258h0a11.13667,11.13667,0,0,0-6.90518,7.63118l-2.61579,10.02718V313.15h40.80419Z" transform="translate(-147.57111 -95)" fill="#2f2e41"/></svg>